<svg fill="none" height="24" viewBox="0 0 94 24" width="94" xmlns="http://www.w3.org/2000/svg"><g fill="#000"><path d="m3.06044 24h-3.06044v-23.899583h13.568v2.644353h-10.50756v8.46863h9.86146v2.6443h-9.86146z"/><path d="m32.2035 24-2.9245-7.3975h-9.6234l-2.8904 7.3975h-3.0944l9.4874-24h2.7544l9.4533 24zm-3.8426-10.0753-2.7204-7.23014c-.068-.17852-.1813-.50209-.34-.97071s-.3174-.9484-.4761-1.43933c-.136-.51325-.2494-.90377-.34-1.17155-.1587.69177-.3401 1.37238-.5441 2.04184-.2041.64714-.3741 1.16039-.5101 1.53975l-2.7544 7.23014z"/><path d="m45.1142.100417c3.1738 0 5.4861.613668 6.937 1.841003 1.4509 1.22734 2.1763 2.95677 2.1763 5.18829 0 1.31659-.306 2.55509-.9181 3.71549-.5894 1.1381-1.5983 2.0641-3.0265 2.7782-1.4055.7141-3.3211 1.0712-5.7468 1.0712h-2.7884v9.3054h-3.0604v-23.899583zm-.2721 2.577403h-3.0944v9.43938h2.4484c2.3123 0 4.0352-.3682 5.1687-1.1046s1.7003-1.9861 1.7003-3.749c0-1.53975-.4988-2.68898-1.4963-3.4477-.9974-.75872-2.573-1.13808-4.7267-1.13808z"/><path d="m77.0268 24h-3.6046l-8.6032-11.4142-2.4824 2.1422v9.272h-3.0604v-23.899583h3.0604v11.782383c.6801-.7587 1.3716-1.5174 2.0743-2.27611.7028-.75871 1.4056-1.51743 2.1083-2.27615l6.563-7.230123h3.5705l-9.6234 10.410083z"/><path d="m80.33 24v-23.899583h3.0605v21.221783h10.6095v2.6778z"/></g></svg>