<svg fill="none" height="60" viewBox="0 0 60 60" width="60" xmlns="http://www.w3.org/2000/svg"><circle cx="30" cy="30" r="29.5" stroke="#cedbe7"/><path d="m24.1339 42v-15.3504h-4.7745v15.3504zm-2.3616-17.4554c.7188 0 1.3862-.2567 1.9509-.8214.5134-.5134.8214-1.1808.8214-1.9509 0-.7187-.308-1.3861-.8214-1.9509-.5647-.5134-1.2321-.8214-1.9509-.8214-.7701 0-1.4375.308-1.9509.8214-.5647.5648-.8214 1.2322-.8214 1.9509 0 .7701.2567 1.4375.8214 1.9509.5134.5647 1.1808.8214 1.9509.8214zm20.2277 17.4554v-8.4196c0-2.3616-.3594-4.1072-1.0268-5.2366-.9241-1.3862-2.4643-2.105-4.6719-2.105-1.1294 0-2.0535.3081-2.875.8215-.77.462-1.3348 1.0268-1.6428 1.6942h-.0514v-2.1049h-4.5692v15.3504h4.7233v-7.5982c0-1.1808.154-2.1049.5134-2.721.4107-.8214 1.1808-1.2321 2.3102-1.2321 1.0781 0 1.7969.462 2.2076 1.3861.2054.5648.308 1.4375.308 2.6697v7.4955z" fill="#637381"/></svg>