<svg fill="none" height="60" viewBox="0 0 60 60" width="60" xmlns="http://www.w3.org/2000/svg"><circle cx="30" cy="30" r="29.5" stroke="#cedbe7"/><path d="m30.0031 22.8212c-3.9728 0-7.1772 3.2051-7.1772 7.1788s3.2044 7.1788 7.1772 7.1788 7.1773-3.2051 7.1773-7.1788-3.2045-7.1788-7.1773-7.1788zm0 11.846c-2.5673 0-4.6661-2.0931-4.6661-4.6672s2.0926-4.6672 4.6661-4.6672c2.5736 0 4.6662 2.0931 4.6662 4.6672s-2.0989 4.6672-4.6662 4.6672zm9.1449-12.1397c0 .9309-.7496 1.6744-1.674 1.6744-.9308 0-1.6741-.7497-1.6741-1.6744s.7496-1.6744 1.6741-1.6744c.9244 0 1.674.7497 1.674 1.6744zm4.7536 1.6994c-.1062-2.243-.6184-4.2298-2.2612-5.8668-1.6366-1.6369-3.623-2.1492-5.8655-2.2617-2.3112-.1312-9.2386-.1312-11.5498 0-2.2363.1062-4.2226.6185-5.8655 2.2555-1.6428 1.637-2.1488 3.6238-2.2612 5.8668-.1312 2.3117-.1312 9.2406 0 11.5524.1062 2.243.6184 4.2298 2.2612 5.8668 1.6429 1.6369 3.623 2.1492 5.8655 2.2617 2.3112.1312 9.2386.1312 11.5498 0 2.2425-.1062 4.2289-.6185 5.8655-2.2617 1.6366-1.637 2.1488-3.6238 2.2612-5.8668.1312-2.3118.1312-9.2344 0-11.5462zm-2.9858 14.0266c-.4872 1.2246-1.4305 2.168-2.661 2.6616-1.8428.731-6.2153.5623-8.2517.5623-2.0363 0-6.4151.1625-8.2516-.5623-1.2243-.4873-2.1676-1.4308-2.661-2.6616-.7309-1.8431-.5622-6.2167-.5622-8.2535s-.1624-6.4166.5622-8.2535c.4872-1.2246 1.4304-2.168 2.661-2.6616 1.8427-.731 6.2153-.5623 8.2516-.5623 2.0364 0 6.4152-.1625 8.2517.5623 1.2243.4873 2.1675 1.4308 2.661 2.6616.7308 1.8431.5622 6.2167.5622 8.2535s.1686 6.4166-.5622 8.2535z" fill="#637381"/></svg>