<svg width="29" height="29" viewBox="0 0 29 29" fill="none" xmlns="http://www.w3.org/2000/svg">
<path d="M11.8151 2.24597C13.1095 0.993698 15.1639 0.993699 16.4584 2.24597C17.1986 2.96208 18.2279 3.29651 19.2477 3.15227C21.031 2.90003 22.693 4.10755 23.0042 5.88154C23.1821 6.89598 23.8183 7.77153 24.7281 8.25425C26.3191 9.09839 26.9539 11.0522 26.1629 12.6703C25.7106 13.5956 25.7106 14.6778 26.1629 15.6031C26.9539 17.2212 26.3191 19.175 24.7281 20.0192C23.8183 20.5019 23.1821 21.3775 23.0042 22.3919C22.693 24.1659 21.031 25.3734 19.2477 25.1212C18.2279 24.9769 17.1986 25.3114 16.4584 26.0275C15.1639 27.2797 13.1095 27.2797 11.8151 26.0275C11.0748 25.3114 10.0456 24.9769 9.02577 25.1212C7.24245 25.3734 5.58044 24.1659 5.26926 22.3919C5.09131 21.3775 4.45518 20.5019 3.54538 20.0192C1.95438 19.175 1.31955 17.2212 2.11052 15.6031C2.56283 14.6778 2.56283 13.5956 2.11052 12.6703C1.31955 11.0522 1.95438 9.09839 3.54538 8.25425C4.45518 7.77153 5.09131 6.89598 5.26926 5.88154C5.58044 4.10756 7.24245 2.90003 9.02577 3.15227C10.0456 3.29651 11.0748 2.96208 11.8151 2.24597Z" fill="#05CB63"/>
<path d="M10.0948 11.5996C10.6578 11.5996 11.0677 11.7418 11.3247 12.0261C11.5858 12.3056 11.7164 12.6918 11.7164 13.1846C11.7164 13.4783 11.6633 13.7555 11.5573 14.0161C11.4512 14.272 11.2738 14.4781 11.0249 14.6345C10.7802 14.7909 10.4457 14.869 10.0214 14.869H9.62367V16.6743H8.69971V11.5996H10.0948ZM10.0459 12.4809H9.62367V13.9877H9.92962C10.1907 13.9877 10.3967 13.9285 10.5476 13.81C10.7026 13.6868 10.7802 13.4902 10.7802 13.2201C10.7802 12.7273 10.5354 12.4809 10.0459 12.4809Z" fill="white"/>
<path d="M16.1644 14.0872C16.1644 14.9448 15.9543 15.5916 15.5342 16.0276C15.1181 16.4587 14.5327 16.6743 13.778 16.6743H12.542V11.5996H13.9126C14.3695 11.5996 14.7652 11.6944 15.0997 11.8839C15.4383 12.0734 15.6994 12.353 15.8829 12.7226C16.0706 13.0874 16.1644 13.5423 16.1644 14.0872ZM15.2037 14.1156C15.2037 13.5518 15.0977 13.1396 14.8855 12.879C14.6734 12.6136 14.3654 12.4809 13.9616 12.4809H13.4659V15.7859H13.8637C14.757 15.7859 15.2037 15.2291 15.2037 14.1156Z" fill="white"/>
<path d="M17.9832 16.6743H17.0715V11.5996H19.5741V12.4809H17.9832V13.7887H19.464V14.67H17.9832V16.6743Z" fill="white"/>
<rect x="8.69971" y="8.69922" width="2.53736" height="0.36248" fill="white"/>
<rect x="17.0369" y="8.69922" width="2.53736" height="0.36248" fill="white"/>
<path d="M15.7227 7.48755H15.0059C15.0573 7.45004 15.1015 7.41278 15.1323 7.37938C15.3149 7.18315 15.3149 6.86375 15.1323 6.66751C14.9549 6.47684 14.6455 6.47659 14.4679 6.66751C14.3698 6.77277 14.109 7.20129 14.145 7.48755H14.1287C14.1645 7.20129 13.904 6.77277 13.8059 6.66751C13.6283 6.47659 13.3188 6.47684 13.1414 6.66751C12.9588 6.86375 12.9588 7.18315 13.1412 7.37938C13.1722 7.41278 13.2164 7.45004 13.2678 7.48755H12.551C12.4262 7.48755 12.3245 7.59619 12.3245 7.72951V8.33444C12.3245 8.40122 12.3752 8.45542 12.4377 8.45542H12.551V9.90724C12.551 10.0406 12.6527 10.1492 12.7776 10.1492H15.4962C15.621 10.1492 15.7227 10.0406 15.7227 9.90724V8.45542H15.836C15.8985 8.45542 15.9493 8.40122 15.9493 8.33444V7.72951C15.9493 7.59619 15.8475 7.48755 15.7227 7.48755ZM13.302 6.8381C13.348 6.78874 13.409 6.76164 13.4738 6.76164C13.5383 6.76164 13.5993 6.78874 13.6452 6.8381C13.7979 7.00215 13.9497 7.42125 13.8969 7.47956C13.8969 7.47956 13.8874 7.48755 13.855 7.48755C13.6985 7.48755 13.3997 7.31381 13.302 7.2088C13.2071 7.10668 13.2071 6.94021 13.302 6.8381ZM14.0236 9.90724H12.7776V8.45542H14.0236V9.90724ZM14.0236 8.21345H12.551V7.72951H13.855H14.0236V8.21345ZM14.6285 6.8381C14.7205 6.73962 14.8799 6.73986 14.9717 6.8381C15.0666 6.94021 15.0666 7.10668 14.9717 7.2088C14.8741 7.31381 14.5752 7.48755 14.4187 7.48755C14.3863 7.48755 14.3768 7.4798 14.3766 7.47956C14.324 7.42125 14.4758 7.00215 14.6285 6.8381ZM15.4962 9.90724H14.2501V8.45542H15.4962V9.90724ZM15.7227 8.21345H14.2501V7.72951H14.4187H15.7227V8.21345Z" fill="white"/>
<rect x="8.69971" y="19.2109" width="10.8744" height="0.36248" fill="white"/>
</svg>
