<svg fill="none" height="45" viewBox="0 0 48 45" width="48" xmlns="http://www.w3.org/2000/svg" xmlns:xlink="http://www.w3.org/1999/xlink"><clipPath id="a"><path d="m11 7h25.6v30.4h-25.6z"/></clipPath><rect fill="#212b36" height="45" rx="4" width="48"/><g clip-path="url(#a)" clip-rule="evenodd" fill="#fff" fill-rule="evenodd"><path d="m23.2895 7.30313c.3147-.18686.7064-.18686 1.0211 0l11.8 7.00627c.3034.1802.4894.5069.4894.8598v14.0616c0 .3529-.186.6796-.4894.8598l-10.8 6.4125c-.6666.3958-1.5106-.0846-1.5106-.8598v-2.0169c0-.3529.186-.6797.4895-.8599l8.1639-4.8473c.3035-.1802.4895-.507.4895-.8599v-9.7188c0-.3528-.1859-.6795-.4892-.8597l-10.8591-6.4519c-.6523-.38765-.6522-1.33217.0003-1.71959z"/><path d="m11 29.2311c0 .3529.186.6796.4895.8598l1.6571.9839c.6666.3958 1.5105-.0846 1.5105-.8598v-12.874c0-.353.1861-.6797.4895-.8599l.8362-.4965c.3148-.1869.7066-.1868 1.0214.0002l8.1352 4.834c.3033.1802.4892.5069.4892.8597v4.6765c0 .7732.8398 1.2539 1.5065.8623l1.6571-.9736c.3057-.1796.4935-.5076.4935-.8622v-5.8743c0-.3529-.186-.6796-.4894-.8598l-11.7944-7.0043c-.3148-.187-.7065-.187-1.0212-.0001l-4.4912 2.6667c-.3035.1801-.4895.5069-.4895.8598z"/><path d="m18.3145 33.5738c0 .3529.186.6796.4894.8598l1.6572.9839c.6666.3958 1.5105-.0846 1.5105-.8598v-3.1959c0-.353-.1861-.6798-.4896-.8599l-1.6572-.9835c-.6666-.3956-1.5103.0848-1.5103.86z"/><path d="m18 24.6674c0 .3896.2262.7437.5798.9074l1.6571.7675c.6627.3069 1.4203-.1771 1.4203-.9075v-2.1029c0-.3896-.2264-.7438-.58-.9075l-1.6571-.7671c-.6627-.3067-1.4201.1773-1.4201.9075z"/></g></svg>