<svg fill="none" height="60" viewBox="0 0 60 60" width="60" xmlns="http://www.w3.org/2000/svg"><circle cx="30" cy="30" r="29.5" stroke="#cedbe7"/><path d="m42.9163 24.9812c.0191.2625.0191.5251.0191.7875 0 8.0063-6.1866 17.2313-17.4937 17.2313-3.4836 0-6.7196-.9938-9.4417-2.7187.4949.0562.9708.075 1.4848.075 2.8743 0 5.5203-.9563 7.6332-2.5875-2.703-.0563-4.9683-1.8-5.7487-4.2001.3807.0563.7614.0938 1.1612.0938.552 0 1.1041-.0751 1.618-.2062-2.8173-.5626-4.9303-3.0001-4.9303-5.9438v-.075c.8185.45 1.7704.7313 2.7792.7687-1.6561-1.0875-2.7411-2.9437-2.7411-5.0437 0-1.125.3045-2.1563.8376-3.0563 3.0266 3.675 7.5762 6.075 12.6776 6.3375-.0951-.45-.1522-.9187-.1522-1.3874 0-3.3376 2.7411-6.0563 6.1485-6.0563 1.7703 0 3.3692.7312 4.4924 1.9125 1.3895-.2625 2.722-.7688 3.9023-1.4625-.457 1.4063-1.4277 2.5875-2.7031 3.3375 1.2373-.1312 2.4366-.4688 3.5406-.9375-.8374 1.2-1.8844 2.2687-3.0837 3.1312z" fill="#637381"/></svg>