<svg fill="none" height="23" viewBox="0 0 22 23" width="22" xmlns="http://www.w3.org/2000/svg"><path d="m19.519 2.23963c-.5754-.52552-2.9042-2.2008991-8.0965-2.2233573 0 0-6.12102-.3638217-9.10227 2.3491173-1.658267 1.64394-2.2427365 4.05594-2.3061673 7.04287-.0634308 2.98694-.1404537 8.58344 5.3010073 10.10164h.00453l-.00453 2.3177s-.03625.9387.589 1.1274c.75211.2336 1.19612-.4806 1.91652-1.2487.39417-.4222.93787-1.042 1.35017-1.5137 3.72434.31 6.58324-.3997 6.90944-.503.7521-.2426 5.0065-.7816 5.6952-6.3781.7158-5.77625-.3444-9.42345-2.2564-11.07187zm.6298 10.64967c-.5844 4.6713-4.0324 4.9677-4.6667 5.1698-.2718.0854-2.7864.7052-5.94435.5031 0 0-2.356 2.8162-3.08999 3.5484-.24013.238-.50292.2156-.49838-.2561 0-.3099.01812-3.8493.01812-3.8493-.00453 0-.00453 0 0 0-4.61233-1.2666-4.34048-6.0322-4.29064-8.52508.04984-2.49285.52557-4.53654 1.93011-5.91097 2.52364-2.26827 7.72043-1.9314 7.72043-1.9314 4.3903.01797 6.4926 1.32952 6.9819 1.7697 1.6175 1.37443 2.4421 4.6623 1.8395 9.48185zm-6.2978-3.62927c.0182.38628-.5663.41323-.5844.02695-.0499-.98815-.5165-1.46876-1.4771-1.52266-.3896-.02246-.3534-.60187.0318-.57942 1.264.06738 1.9663.78604 2.0297 2.07513zm.9198.50756c.0453-1.90445-1.1554-3.39567-3.4343-3.56186-.3852-.02695-.3444-.60637.0407-.57942 2.6279.18865 4.0279 1.98081 3.9781 4.15475-.0046.38624-.5936.36834-.5845-.01347zm2.1295.60191c.0045.3862-.5845.3907-.5845.0045-.0272-3.66072-2.4874-5.655-5.4732-5.67746-.3851-.00449-.3851-.57942 0-.57942 3.3392.02246 6.0259 2.3087 6.0577 6.25238zm-.512 4.4062v.009c-.4893.8534-1.4046 1.7967-2.347 1.4957l-.009-.0134c-.956-.265-3.2078-1.4149-4.63048-2.5378-.73398-.5749-1.40453-1.2532-1.92104-1.9045-.46667-.5794-.93787-1.2666-1.39548-2.09305-.96506-1.72927-1.178-2.50183-1.178-2.50183-.30356-.93426.64337-1.84157 1.50875-2.32666h.00906c.41683-.2156.81554-.14373 1.08285.17517 0 0 .56182.66476.80195.99265.22654.30543.5301.79502.68868 1.06901.27637.48958.1042.98815-.16764 1.19477l-.54369.43119c-.27638.22009-.24014.62883-.24014.62883s.80648 3.02282 3.81948 3.78642c0 0 .4123.036.6343-.238l.4349-.539c.2084-.2695.7114-.4402 1.2052-.1662.666.3728 1.5133.9522 2.0751 1.4777.3172.256.3897.6468.1722 1.06z" fill="#7d51a0"/></svg>