<svg fill="none" height="60" viewBox="0 0 60 60" width="60" xmlns="http://www.w3.org/2000/svg"><circle cx="30" cy="30" r="29.5" stroke="#cedbe7"/><path d="m43.3163 25.1528c.206-.6641 0-1.1528-.9913-1.1528h-3.2803c-.8354 0-1.2197.4197-1.4257.8872 0 0-1.6708 3.8834-4.0321 6.4016-.763.7278-1.1139.9615-1.5315.9615-.2061 0-.5236-.2337-.5236-.8978v-6.1997c0-.7969-.2339-1.1528-.9244-1.1528h-5.1571c-.5235 0-.8354.3719-.8354.7172 0 .7544 1.1807.9297 1.3032 3.0547v4.6112c0 1.0094-.1894 1.1953-.6071 1.1953-1.1138 0-3.8204-3.8993-5.4244-8.3618-.323-.866-.6404-1.2166-1.4814-1.2166h-3.2802c-.9356 0-1.125.4197-1.125.8872 0 .8287 1.1138 4.9459 5.1849 10.3859 2.7122 3.7135 6.5327 5.7269 10.0079 5.7269 2.0884 0 2.3446-.4462 2.3446-1.2166 0-3.5487-.1893-3.8834.8577-3.8834.4845 0 1.3199.2338 3.2691 2.0241 2.2277 2.125 2.5952 3.0759 3.8427 3.0759h3.2803c.9356 0 1.409-.4463 1.1361-1.3281-.6237-1.8541-4.8396-5.6685-5.029-5.9235-.4845-.595-.3453-.8606 0-1.3918.0056-.0054 4.0099-5.3816 4.422-7.2038z" fill="#637381"/></svg>