<svg fill="none" height="23" viewBox="0 0 23 23" width="23" xmlns="http://www.w3.org/2000/svg"><path d="m19.5551 3.34219c-2.1511-2.15625-5.0158-3.34219-8.0602-3.34219-6.28396 0-11.3973554 5.11339-11.3973554 11.3973 0 2.0074.5236604 3.9685 1.5196454 5.6987l-1.61719 5.904 6.04263-1.5864c1.6634.9087 3.53728 1.3862 5.44707 1.3862h.0052c6.2788 0 11.5051-5.1134 11.5051-11.3973 0-3.04446-1.2937-5.90406-3.4449-8.06031zm-8.0602 17.53751c-1.7045 0-3.37303-.4569-4.82593-1.3194l-.34397-.2054-3.58348.9395.95491-3.4962-.22589-.3594c-.94978-1.5093-1.44777-3.2497-1.44777-5.0415 0-5.22118 4.25089-9.47208 9.47723-9.47208 2.531 0 4.908.98572 6.6946 2.77746 1.7867 1.79174 2.8853 4.16875 2.8802 6.69982 0 5.2263-4.3587 9.4772-9.5799 9.4772zm5.1955-7.0951c-.2824-.1438-1.6839-.8317-1.9458-.9241-.2618-.0976-.4517-.1438-.6417.1437s-.7341.9241-.9036 1.1192c-.1643.19-.3337.2157-.616.0719-1.6737-.8368-2.77236-1.494-3.87616-3.3884-.29263-.5031.29264-.4672.83683-1.55556.09241-.18996.04621-.35424-.02567-.49799-.07187-.14375-.64174-1.54531-.8779-2.11518-.23102-.55446-.46719-.47746-.64174-.48772-.16428-.01027-.35424-.01027-.5442-.01027-.18995 0-.49799.07187-.75982.35424-.26183.2875-.99598.97545-.99598 2.37701 0 1.40157 1.02165 2.75687 1.16027 2.94687.14375.19 2.00736 3.065 4.86697 4.3022 1.8071.7804 2.5156.8471 3.4192.7137.5493-.0822 1.6839-.688 1.9201-1.3554.2361-.6674.2361-1.2373.1643-1.3554-.0668-.1283-.2567-.2002-.5391-.3388z" fill="#14990a"/></svg>